<svg width="20" height="20" viewBox="0 0 20 20" fill="none" xmlns="http://www.w3.org/2000/svg">
<path d="M9.16663 1.70841V3.38508C7.48555 3.59898 5.949 4.44497 4.86928 5.7511C3.78956 7.05722 3.24769 8.72547 3.35381 10.4168C3.45993 12.1081 4.20607 13.6955 5.44058 14.8564C6.67509 16.0174 8.30533 16.6646 9.99996 16.6667C11.6238 16.6667 13.1918 16.0741 14.4097 15.0001C15.6277 13.9261 16.4118 12.4445 16.615 10.8334H18.2925C17.8741 15.0442 14.3208 18.3334 9.99996 18.3334C5.39746 18.3334 1.66663 14.6026 1.66663 10.0001C1.66663 5.67925 4.95579 2.12591 9.16663 1.70841ZM16.6666 4.51175L9.99996 11.1784L8.82163 10.0001L15.4883 3.33341H11.6666V1.66675H18.3333V8.33342H16.6666V4.51175Z" fill="#181D27"/>
</svg>
