<svg width="20" height="20" viewBox="0 0 20 20" fill="none" xmlns="http://www.w3.org/2000/svg">
<path d="M10 14.1667C13.0517 14.1667 15.7209 15.4792 17.1725 17.4376L15.6375 18.1634C14.4559 16.7634 12.3725 15.8334 10 15.8334C7.62754 15.8334 5.5442 16.7634 4.36254 18.1634L2.82837 17.4367C4.28004 15.4784 6.94837 14.1667 10 14.1667ZM10 1.66675C11.1051 1.66675 12.1649 2.10573 12.9463 2.88714C13.7277 3.66854 14.1667 4.72835 14.1667 5.83342V8.33342C14.1666 9.40714 13.7521 10.4394 13.0095 11.2149C12.2669 11.9904 11.2536 12.4493 10.1809 12.4959L10 12.5001C8.89497 12.5001 7.83516 12.0611 7.05376 11.2797C6.27236 10.4983 5.83337 9.43848 5.83337 8.33342V5.83342C5.83343 4.7597 6.24799 3.72745 6.99059 2.95193C7.73318 2.17642 8.74649 1.71751 9.8192 1.67091L10 1.66675ZM10 3.33341C9.36236 3.33338 8.74877 3.57702 8.28482 4.01448C7.82086 4.45195 7.54161 5.05017 7.5042 5.68675L7.50004 5.83342V8.33342C7.49941 8.98417 7.75255 9.60952 8.20568 10.0766C8.6588 10.5437 9.2762 10.8157 9.92667 10.8347C10.5771 10.8538 11.2094 10.6186 11.6892 10.1789C12.1689 9.73918 12.4583 9.12975 12.4959 8.48008L12.5 8.33342V5.83342C12.5 5.17037 12.2366 4.53449 11.7678 4.06565C11.299 3.59681 10.6631 3.33341 10 3.33341Z" fill="#181D27"/>
</svg>
